<!--?xml version="1.0" standalone="no"?-->
              <svg id="sw-js-blob-svg" viewBox="0 0 100 100" xmlns="http://www.w3.org/2000/svg" version="1.1">
                    <defs> 
                        <linearGradient id="sw-gradient" x1="0" x2="1" y1="1" y2="0">
                            <stop id="stop1" stop-color="rgba(248, 117, 55, 1)" offset="0%"></stop>
                            <stop id="stop2" stop-color="rgba(251, 168, 31, 1)" offset="100%"></stop>
                        </linearGradient>
                    </defs>
                <path fill="url(#sw-gradient)" d="M21.2,-29.9C27.4,-24.7,32.4,-18.4,35.7,-11C39,-3.5,40.5,5.1,37.9,12.1C35.3,19.1,28.5,24.5,21.5,28.3C14.5,32.1,7.2,34.4,-0.2,34.7C-7.7,35.1,-15.5,33.5,-21,29.2C-26.4,24.9,-29.6,17.8,-31.5,10.6C-33.4,3.4,-34.1,-4,-32.7,-11.4C-31.4,-18.8,-28,-26.4,-22.3,-31.8C-16.5,-37.2,-8.2,-40.5,-0.4,-40C7.5,-39.5,15,-35.2,21.2,-29.9Z" width="100%" height="100%" transform="translate(50 50)" stroke-width="0" style="transition: all 0.3s ease 0s;"></path>
              </svg>